<svg xmlns="http://www.w3.org/2000/svg" viewBox="0 0 511.08 184.12"><defs><style>.cls-1{fill:#a6233c;}.cls-2{fill:#c2643d;}</style></defs><title>space_1</title><g id="圖層_2" data-name="圖層 2"><g id="圖層_1-2" data-name="圖層 1"><path class="cls-1" d="M511.08,184.12H0c.06-.21.13-.42.2-.62.34-1,.7-2.07,1.06-3.1s.72-2.06,1.1-3.09.75-2,1.13-3.06c.77-2,1.57-4.07,2.38-6.08s1.58-3.83,2.4-5.73c.47-1.09,1-2.17,1.44-3.26.87-1.93,1.75-3.85,2.67-5.76q2.82-5.92,5.93-11.68c.51-.95,1-1.9,1.55-2.84s.89-1.61,1.35-2.41q2.55-4.5,5.29-8.9c.34-.57.7-1.13,1.06-1.69.76-1.22,1.53-2.43,2.33-3.63l1.22-1.87c1.57-2.36,3.17-4.68,4.81-7,.62-.88,1.25-1.76,1.89-2.63s1.28-1.74,1.92-2.6,1.3-1.73,2-2.58,1.31-1.71,2-2.55c1.34-1.7,2.69-3.38,4.07-5,.68-.83,1.37-1.66,2.07-2.48l2.1-2.45Q54,90.64,56.2,88.24l2.19-2.38q3.3-3.54,6.73-7c1.52-1.53,3.06-3,4.62-4.51.78-.75,1.57-1.49,2.35-2.22L74.47,70l2.41-2.16,2.43-2.13,2.45-2.1c.82-.7,1.65-1.39,2.48-2.07l2.44-2,.16-.13c.81-.65,1.62-1.3,2.44-1.94,1.7-1.33,3.41-2.65,5.14-3.94.86-.64,1.73-1.29,2.6-1.92s1.75-1.27,2.63-1.89L102,48l.49-.34,2.26-1.55.37-.25,2.15-1.44L108,44l2.42-1.57q2.73-1.75,5.51-3.44c.93-.56,1.85-1.12,2.79-1.67l2.81-1.64c.79-.46,1.59-.91,2.4-1.36l.68-.39,2.6-1.43c1-.52,1.91-1,2.87-1.53l2.89-1.51L135.86,28c1.8-.9,3.61-1.77,5.44-2.63,1.13-.53,2.27-1,3.42-1.57l3-1.33,2.73-1.18q3.15-1.34,6.36-2.6c.87-.35,1.75-.69,2.63-1,1.17-.45,2.34-.89,3.52-1.32s2.06-.75,3.1-1.11l2.91-1,.29-.1,2.79-.92.39-.13q1.52-.5,3-1l3.17-1c2.12-.63,4.25-1.24,6.39-1.81,1.07-.29,2.14-.58,3.22-.85s2.15-.55,3.23-.81,2.17-.52,3.25-.77,2.18-.5,3.27-.74c2.14-.46,4.3-.9,6.46-1.32l.79-.15c2-.38,4-.73,6-1.06l3.34-.53,3.35-.49,2.71-.36c1.34-.18,2.68-.34,4-.49L228,1.4l3.4-.32C234,.85,236.53.66,239.1.5q6.45-.39,13-.47h.26a13.47,13.47,0,0,0,.8,26.92c.42,0,.83,0,1.24-.06l1.14,8.51a11.13,11.13,0,0,0-8,10.6c0,5.48,4.14,9.19,8,10.5a9.48,9.48,0,0,0,2.6.53h.43a11,11,0,0,0,2.25-21.85,11.35,11.35,0,0,0,.29-4.34,11.93,11.93,0,0,0-2-5.3A13.48,13.48,0,0,0,255.54.22,12.33,12.33,0,0,0,253.7,0h1.85C374.5,0,475.44,77.13,511.08,184.12Z"/><path class="cls-2" d="M255.54,117.63c-8.28,6.34-14.75,25.83-17.63,66.49H0a6.45,6.45,0,0,1,.21-.62c.34-1,.7-2.07,1.06-3.1s.72-2.06,1.1-3.09.75-2,1.13-3.06c.77-2,1.57-4.07,2.38-6.08s1.58-3.83,2.4-5.73c.47-1.09,1-2.17,1.44-3.26.87-1.93,1.75-3.85,2.67-5.76q2.82-5.92,5.93-11.68c.51-.95,1-1.9,1.55-2.84s.89-1.61,1.35-2.41q2.55-4.5,5.29-8.9c.34-.57.7-1.13,1.06-1.69.76-1.22,1.53-2.43,2.33-3.63l1.22-1.87c1.57-2.36,3.17-4.68,4.81-7,.62-.88,1.25-1.76,1.89-2.63s1.28-1.74,1.92-2.6,1.3-1.73,2-2.58,1.31-1.71,2-2.55c1.34-1.7,2.69-3.38,4.07-5,.68-.83,1.37-1.66,2.07-2.48l2.1-2.45Q54,90.64,56.2,88.24l2.19-2.38q3.3-3.54,6.73-7c1.52-1.52,3.06-3,4.62-4.51.78-.75,1.57-1.49,2.35-2.22L74.47,70l2.41-2.16,2.43-2.13,2.45-2.1c.82-.7,1.65-1.39,2.48-2.07l2.44-2,.16-.13c.81-.65,1.62-1.3,2.44-1.94,1.7-1.33,3.41-2.65,5.14-3.94.86-.64,1.73-1.29,2.6-1.92s1.75-1.27,2.63-1.89L102,48l.49-.34,2.26-1.55.37-.25,2.15-1.44L108,44l2.42-1.57q2.73-1.75,5.51-3.44c.93-.56,1.85-1.12,2.79-1.67l2.81-1.64c.79-.46,1.59-.91,2.4-1.36l.68-.39,2.6-1.43c1-.52,1.91-1,2.87-1.53l2.89-1.51L135.86,28c1.8-.9,3.61-1.77,5.44-2.63,1.13-.53,2.27-1,3.42-1.57l3-1.33,2.73-1.18q3.15-1.34,6.36-2.6c.87-.35,1.75-.69,2.63-1,1.17-.45,2.34-.89,3.52-1.32s2.06-.75,3.1-1.11l2.91-1,.29-.1,2.79-.92.39-.13q1.52-.5,3-1l3.17-1q3.18-.95,6.39-1.81c1.07-.29,2.14-.58,3.22-.85s2.15-.55,3.23-.81,2.17-.52,3.25-.77,2.18-.5,3.27-.74c2.14-.46,4.3-.9,6.46-1.32l.79-.15c2-.37,4-.73,6-1.06l3.34-.53,3.35-.49,2.71-.36c1.34-.18,2.68-.34,4-.49L228,1.4l3.4-.32q10.21-.91,20.65-1h3.48V56.73c0,3-2,8,0,13.5,4,11.09,16.8,11.42,19.31,19C278.56,100.28,256.63,116.8,255.54,117.63Z"/><circle class="cls-1" cx="226.31" cy="60.47" r="8.28"/><circle class="cls-1" cx="230.15" cy="112.3" r="11.91"/><circle class="cls-1" cx="230.15" cy="22.1" r="4.85"/><circle class="cls-1" cx="202.02" cy="28.29" r="11.04"/><circle class="cls-1" cx="190.98" cy="65.32" r="4.85"/><circle class="cls-1" cx="202.02" cy="99.11" r="8.28"/><circle class="cls-1" cx="210.3" cy="138.63" r="4.85"/><circle class="cls-1" cx="205.45" cy="165.55" r="11.64"/><circle class="cls-2" cx="290.99" cy="35.56" r="8.28"/><circle class="cls-2" cx="292.98" cy="89.24" r="5.4"/><circle class="cls-2" cx="309.78" cy="60.47" r="5.4"/><circle class="cls-2" cx="265.2" cy="140.01" r="9.66"/><circle class="cls-2" cx="287.57" cy="165.55" r="5.4"/><circle class="cls-1" cx="179.1" cy="130.36" r="11.04"/><circle class="cls-1" cx="234.58" cy="160.7" r="8.28"/><circle class="cls-2" cx="324.84" cy="140.01" r="9.66"/><ellipse class="cls-2" cx="257.85" cy="14.16" rx="11.97" ry="14.14"/><circle class="cls-2" cx="259.88" cy="45.75" r="13.47"/><circle class="cls-2" cx="256.99" cy="32.52" r="5.4"/></g></g></svg>